# xmcd
# 
# Track frame offsets:
#     150
#     19738
#     35138
#     54253
#     71839
#     83750
#     101884
#     124474
#     141360
#     160640
#     175928
#     205183
#     215635
#     231812
#     252327
# 
# Disc length: 3605
# 
# Revision: 7
# Processed by: cddbd v1.5.2PL0 Copyright (c) Steve Scherf et al.
# Submitted via: fre:ac v1.0.31
# 
DISCID=dd0e130f
DTITLE=Eric Bibb - Blues People
DYEAR=2014
DGENRE=Blues
TTITLE0=Silver Spoon (featuring Popa Chubby)
TTITLE1=Driftin' Door To Door
TTITLE2=God's Mojo
TTITLE3=Turner Station
TTITLE4=Pink Dream Cadillac
TTITLE5=Chocolate Man (featuring Guy Davis)
TTITLE6=Rosewood
TTITLE7=I Heard The Angels Singin' (featuring J.J. Milteau and The Blind Boys Of Alabama
TTITLE8=Dream Catchers (featuring Harrison Kennedy and Ruthie Foster)
TTITLE9=Chain Reaction (featuring Glenn Scott)
TTITLE10=Needed Time (featuring Taj Mahal, The Blind Boys Of Alabama and Ruthie Foster)
TTITLE11=Out Walkin'
TTITLE12=Remember The Ones (featuring Linda Tillery)
TTITLE13=Home (featuring Andre De Lange)
TTITLE14=Where Do We Go (featuring Layla McCalla)
EXTD=YEAR: 2014
EXTT0=
EXTT1=
EXTT2=
EXTT3=
EXTT4=
EXTT5=
EXTT6=
EXTT7=
EXTT8=
EXTT9=
EXTT10=
EXTT11=
EXTT12=
EXTT13=
EXTT14=
PLAYORDER=
